<svg xmlns="http://www.w3.org/2000/svg" viewBox="0 0 753.68 261.41"><path d="M179.37,305.85l-2.59-2.18A20.35,20.35,0,0,0,179.37,305.85Z" transform="translate(-10.46 -106.94)" style="fill:none"/><path d="M268.23,315.33l-2.33,4.86Q267.16,317.84,268.23,315.33Z" transform="translate(-10.46 -106.94)" style="fill:#108c7b;opacity:0.6"/><path d="M176.78,303.67c-6-5.89-9.48-16.25-10.94-32.94l-7.79-89.24-52.42,62.45Z" transform="translate(-10.46 -106.94)" style="fill:#007946;opacity:0.45"/><path d="M265.9,320.19l2.33-4.86c4.75-11.25,6.51-24.9,5.11-40.93L262.41,149.11l-43.86,3.83,9.8,112.34c2.84,32.5-6.13,42.77-27.59,44.64-8.94.78-16-.26-21.39-4.07l50.79,42.63C246.74,343,258.73,333.54,265.9,320.19Z" transform="translate(-10.46 -106.94)" style="fill:#007946;opacity:0.53"/><polygon points="728.85 39.71 735.23 0 686.44 4.26 728.69 39.73 728.85 39.71" style="fill:#007946;opacity:0.53"/><polygon points="572.18 170.85 572.12 170.8 572.13 170.85 572.18 170.85" style="fill:#10ff7b;opacity:0.1"/><polygon points="572.18 170.85 572.13 170.85 572.12 170.8 560.78 40.85 558.56 15.41 514.71 19.24 520.75 88.53 524.44 130.77 531.66 213.54 587.14 208.7 599.6 193.86 622.61 166.45 572.18 170.85" style="fill:#007946;opacity:0.53"/><polygon points="637.29 148.97 693.77 81.69 675.74 83.26 672.37 44.64 728.69 39.73 686.44 4.26 625.13 9.61 637.29 148.97" style="fill:#10ff7b;opacity:0.2"/><polygon points="637.29 148.97 693.77 81.69 675.74 83.26 672.37 44.64 728.69 39.73 686.44 4.26 625.13 9.61 637.29 148.97" style="fill:#007946"/><path d="M83.15,219.92c-1.23-14.11-11.93-19.19-31.35-17.5l-3.55.31L52,245.29l3.55-.31C74.69,243.31,84.59,236.42,83.15,219.92Z" transform="translate(-10.46 -106.94)" style="fill:#007946"/><path d="M126.44,261.41,112.85,250a47.42,47.42,0,0,1-7.69,6.07A62.17,62.17,0,0,1,126.44,261.41Z" transform="translate(-10.46 -106.94)" style="fill:#007946"/><path d="M125.86,211.62a58.75,58.75,0,0,1,.14,8l32.05-38.18-2-23.1-6.46.56v0L10.46,171.05v0l50.86-4.44C95,163.72,122.58,174.08,125.86,211.62Z" transform="translate(-10.46 -106.94)" style="fill:#007946"/><path d="M69.31,282.8l-14,1.22,4.07,46.63,14-1.22c21.08-1.84,32.12-9.31,30.76-24.85C102.56,286.41,90.39,281,69.31,282.8Z" transform="translate(-10.46 -106.94)" style="fill:#007946"/><path d="M179.37,305.85a20.35,20.35,0,0,1-2.59-2.18L142.3,274.73c4.75,6.84,7.86,15.82,8.88,27.43,2.83,32.52-18.65,57-59.15,60.58L192.2,354c4,0,8.08-.13,12.36-.51a112.37,112.37,0,0,0,25.6-5Z" transform="translate(-10.46 -106.94)" style="fill:#007946"/><path d="M126.44,261.41l15.86,13.32A39.59,39.59,0,0,0,126.44,261.41Z" transform="translate(-10.46 -106.94)" style="fill:#f2f2f2"/><path d="M112.85,250c8.33-8.12,12.57-18.65,13.15-30.33l-20.37,24.27Z" transform="translate(-10.46 -106.94)" style="fill:#f2f2f2"/><path d="M151.18,302.16c-1-11.61-4.13-20.59-8.88-27.43l-15.86-13.32a62.17,62.17,0,0,0-21.28-5.34,47.42,47.42,0,0,0,7.69-6.07l-7.22-6.06L126,219.67a58.75,58.75,0,0,0-.14-8c-3.28-37.54-30.91-47.9-64.53-45l-50.86,4.44L27.68,368.35,92,362.74C132.53,359.2,154,334.68,151.18,302.16ZM48.25,202.73l3.55-.31c19.42-1.69,30.12,3.39,31.35,17.5,1.44,16.5-8.46,23.39-27.64,25.06l-3.55.31Zm25.13,126.7-14,1.22L55.34,284l14-1.22c21.08-1.83,33.25,3.61,34.83,21.78C105.5,320.12,94.46,327.59,73.38,329.43Z" transform="translate(-10.46 -106.94)" style="fill:#fff"/><polygon points="441.9 221.37 485.75 217.54 478.81 138.03 438.79 185.71 441.9 221.37" style="fill:none"/><path d="M350.38,296.43c5.23-3,9.05-8.15,8.29-16.9-1.24-14.13-22.32-18.69-46.18-28.24-12.73-5-22.94-12.13-30-20.69l-4.35,5.18Z" transform="translate(-10.46 -106.94)" style="fill:none"/><path d="M335.62,179.74c19.83-1.73,40.13,10,40.13,10l14.64-36.88s-13-8-32.86-11.69L321.63,184C325.11,181.73,329.78,180.25,335.62,179.74Z" transform="translate(-10.46 -106.94)" style="fill:#007946;opacity:0.45"/><path d="M406.49,272.75c-2.22-25.43-27.38-41.75-49.64-49.06-22.75-7.51-41.62-13.69-42.57-24.53a17,17,0,0,1,1-7.59l-32.77,39c7.07,8.56,17.28,15.66,30,20.69,23.86,9.55,44.94,14.11,46.18,28.24.76,8.75-3.06,13.86-8.29,16.9l35.1,29.47C399.91,314.9,408.68,297.77,406.49,272.75Z" transform="translate(-10.46 -106.94)" style="fill:#007946;opacity:0.53"/><path d="M315.25,191.57l6.38-7.61A15.57,15.57,0,0,0,315.25,191.57Z" transform="translate(-10.46 -106.94)" style="fill:#10ff7b;opacity:0.25"/><path d="M332.57,301c-21.46,1.88-49-17.79-49-17.79l-18.68,39.13s29.54,23.29,74.56,19.36c17.3-1.51,33.74-6.44,46.06-15.83l-35.1-29.47C344.77,299.71,337.53,300.6,332.57,301Z" transform="translate(-10.46 -106.94)" style="fill:#007946"/><path d="M271.51,204.56a46.92,46.92,0,0,0,11,26l32.77-39a15.57,15.57,0,0,1,6.38-7.61l35.9-42.76a105.09,105.09,0,0,0-28.45-1.47C298.05,142.44,268.34,168.29,271.51,204.56Z" transform="translate(-10.46 -106.94)" style="fill:#007946;opacity:0.9"/><polygon points="441.9 221.37 485.75 217.54 478.81 138.03 438.79 185.71 441.9 221.37" style="fill:#007946"/><polygon points="430.53 26.59 472.78 62.05 508.14 58.97 514.52 19.26 430.53 26.59" style="fill:#007946"/><polygon points="379.23 31.06 382.62 69.92 428.33 65.93 438.79 185.71 478.81 138.03 472.19 62.11 472.78 62.05 430.53 26.59 379.23 31.06" style="fill:#007946;opacity:0.53"/><polygon points="622.61 166.45 599.6 193.86 587.14 208.7 614.43 206.32 631.99 204.78 638.37 165.07 622.61 166.45" style="fill:#007946"/><polygon points="642.08 203.91 747.3 194.72 753.68 155.01 682.55 161.22 679.13 122.12 732.81 117.44 739.19 77.73 693.77 81.69 637.29 148.97 642.08 203.91" style="fill:#007946;opacity:0.53"/></svg>